<svg width="49" height="48" viewBox="0 0 49 48" fill="none" xmlns="http://www.w3.org/2000/svg">
<path d="M8.5 6C7.96957 6 7.46086 6.21071 7.08579 6.58579C6.71071 6.96086 6.5 7.46957 6.5 8C6.5 17.0174 10.0821 25.6654 16.4584 32.0416C22.8346 38.4179 31.4826 42 40.5 42C41.0304 42 41.5391 41.7893 41.9142 41.4142C42.2893 41.0391 42.5 40.5304 42.5 40V33C42.5 32.4696 42.2893 31.9609 41.9142 31.5858C41.5391 31.2107 41.0304 31 40.5 31C38 31 35.6 30.6 33.36 29.86C32.66 29.64 31.88 29.8 31.32 30.34L26.92 34.74C21.26 31.86 16.62 27.24 13.74 21.56L18.14 17.14C18.7 16.62 18.86 15.84 18.64 15.14C17.9 12.9 17.5 10.5 17.5 8C17.5 7.46957 17.2893 6.96086 16.9142 6.58579C16.5391 6.21071 16.0304 6 15.5 6H8.5ZM30.5 6V9H37.5L26.5 20L28.5 22L39.5 11V18H42.5V6H30.5Z" fill="#1904FF"/>
</svg>
