<svg width="240" height="34" viewBox="0 0 240 34" fill="none" xmlns="http://www.w3.org/2000/svg">
<g clip-path="url(#clip0_113_615)">
<path d="M6.47352 19.9642H26.3129V14.7466H6.47352V6.74106H30.6807V1.22363H12.4977C9.1831 1.22363 6.00426 2.57001 3.66049 4.96658C1.31672 7.36316 0 10.6136 0 14.0029L0 33.3898H30.7302V27.8724H6.47352V19.9642Z" fill="#1A05FF"/>
<path d="M80.0697 24.9714C81.8328 22.6975 82.6325 20.4352 82.6325 17.0087C82.6325 13.5822 81.8709 10.6191 80.3173 8.18161C78.6907 5.67254 76.373 3.71313 73.6572 2.55127C70.7555 1.23519 67.242 0.577148 63.1167 0.577148C58.9915 0.577148 55.4869 1.23519 52.603 2.55127C49.8806 3.70889 47.5568 5.66888 45.9276 8.18161C44.3842 10.6191 43.6137 13.5615 43.6162 17.0087C43.6188 20.456 44.3892 23.3815 45.9276 25.7852C47.5568 28.2979 49.8806 30.2579 52.603 31.4155C55.5123 32.7342 59.0168 33.3922 63.1167 33.3896H63.4975H83.1732V27.7866H75.1194C77.05 27.3349 78.855 26.5406 80.0697 24.9714ZM56.3957 26.6146C54.5481 25.9228 52.944 24.6838 51.7881 23.0557C50.6762 21.4644 50.1202 19.4488 50.1202 17.0087C50.1202 14.5686 50.6762 12.553 51.7881 10.9617C52.9529 9.32904 54.562 8.08316 56.4147 7.3795C58.5609 6.54975 60.8416 6.14411 63.1358 6.18413C65.4243 6.13697 67.7001 6.54288 69.8378 7.3795C71.6574 8.09468 73.2317 9.34024 74.3654 10.9617C75.4621 12.553 76.0105 14.5686 76.0105 17.0087C76.0105 19.4488 75.4621 21.4644 74.3654 23.0557C73.2356 24.6757 71.6593 25.9147 69.8378 26.6146C67.6957 27.4323 65.4218 27.8286 63.1358 27.7827C60.8377 27.824 58.5521 27.4279 56.3957 26.6146Z" fill="#1A05FF"/>
<path d="M103.078 1.22363H96.604V22.133C96.604 23.6116 96.8889 25.0757 97.4424 26.4417C97.9958 27.8077 98.8071 29.0488 99.8297 30.0941C100.852 31.1395 102.066 31.9685 103.403 32.534C104.739 33.0995 106.171 33.3903 107.617 33.3898H123.991V27.8723H103.078V1.22363Z" fill="#1A05FF"/>
<path d="M137.311 14.0029V33.3898H143.785V20.5638H163.624V15.3929H143.785V6.74106H167.999V1.22363H149.809C148.167 1.22312 146.542 1.55332 145.025 2.19535C143.509 2.83739 142.131 3.77868 140.97 4.96544C139.81 6.15221 138.889 7.56118 138.261 9.11186C137.633 10.6625 137.311 12.3245 137.311 14.0029V14.0029Z" fill="#1A05FF"/>
<path d="M188.022 1.22363H181.556V33.3898H188.022V1.22363Z" fill="#1A05FF"/>
<path d="M233.534 1.22364V24.773L214.768 5.86108C211.812 2.88559 207.828 1.21969 203.68 1.22364V33.3898H210.153V10.0274L228.934 28.7952C231.885 31.7451 235.85 33.3946 239.977 33.3898H240.011V1.22364H233.534Z" fill="#1A05FF"/>
</g>
<defs>
<clipPath id="clip0_113_615">
<rect width="240" height="32.8125" fill="white" transform="translate(0 0.577148)"/>
</clipPath>
</defs>
</svg>
